<svg width="14" height="14" viewBox="0 0 14 14" fill="none" xmlns="http://www.w3.org/2000/svg">
<path d="M9.44425 1.16675H4.55591C2.43258 1.16675 1.16675 2.43258 1.16675 4.55591V9.43841C1.16675 11.5676 2.43258 12.8334 4.55591 12.8334H9.43841C11.5617 12.8334 12.8276 11.5676 12.8276 9.44425V4.55591C12.8334 2.43258 11.5676 1.16675 9.44425 1.16675ZM10.5001 7.43758H4.55591L6.31175 9.19341C6.48091 9.36258 6.48091 9.64258 6.31175 9.81175C6.22425 9.89925 6.11341 9.94008 6.00258 9.94008C5.89175 9.94008 5.78091 9.89925 5.69341 9.81175L3.19091 7.30925C3.10925 7.22758 3.06258 7.11675 3.06258 7.00008C3.06258 6.88341 3.10925 6.77258 3.19091 6.69091L5.69341 4.18841C5.86258 4.01925 6.14258 4.01925 6.31175 4.18841C6.48091 4.35758 6.48091 4.63758 6.31175 4.80675L4.55591 6.56258H10.5001C10.7392 6.56258 10.9376 6.76091 10.9376 7.00008C10.9376 7.23925 10.7392 7.43758 10.5001 7.43758Z" fill="#999999"/>
</svg>
