<svg width="14" height="15" viewBox="0 0 14 15" fill="none" xmlns="http://www.w3.org/2000/svg">
<path d="M9.33329 1.6665H4.66663C2.33329 1.6665 1.16663 2.83317 1.16663 5.1665V12.7498C1.16663 13.0707 1.42913 13.3332 1.74996 13.3332H9.33329C11.6666 13.3332 12.8333 12.1665 12.8333 9.83317V5.1665C12.8333 2.83317 11.6666 1.6665 9.33329 1.6665ZM8.16663 9.39567H4.08329C3.84413 9.39567 3.64579 9.19734 3.64579 8.95817C3.64579 8.719 3.84413 8.52067 4.08329 8.52067H8.16663C8.40579 8.52067 8.60413 8.719 8.60413 8.95817C8.60413 9.19734 8.40579 9.39567 8.16663 9.39567ZM9.91663 6.479H4.08329C3.84413 6.479 3.64579 6.28067 3.64579 6.0415C3.64579 5.80234 3.84413 5.604 4.08329 5.604H9.91663C10.1558 5.604 10.3541 5.80234 10.3541 6.0415C10.3541 6.28067 10.1558 6.479 9.91663 6.479Z" fill="#7334EA"/>
</svg>
